<svg width="66" height="66" viewBox="0 0 66 66" fill="none" xmlns="http://www.w3.org/2000/svg">
<rect x="0.5" y="0.5" width="65" height="65" rx="11.5" fill="#1F1F1F"/>
<rect x="0.5" y="0.5" width="65" height="65" rx="11.5" stroke="#333333"/>
<path fill-rule="evenodd" clip-rule="evenodd" d="M35.0335 24.1927C33.7652 23.5012 32.2325 23.5012 30.9643 24.1927L24.1724 27.8961C22.8068 28.6408 21.957 30.072 21.957 31.6275V38.6225C21.957 40.1779 22.8068 41.6092 24.1724 42.3538L30.9642 46.0572C32.2325 46.7488 33.7652 46.7488 35.0335 46.0572L41.8253 42.3538C43.1909 41.6092 44.0407 40.178 44.0407 38.6225V31.6275C44.0407 30.072 43.1909 28.6408 41.8253 27.8961L35.0335 24.1927ZM32.9991 30.875C32.5967 30.875 32.3276 31.3579 31.7892 32.3236L31.65 32.5734C31.497 32.8478 31.4205 32.985 31.3012 33.0756C31.182 33.1661 31.0335 33.1997 30.7364 33.2669L30.4659 33.3281C29.4206 33.5646 28.8979 33.6829 28.7735 34.0828C28.6492 34.4827 29.0055 34.8994 29.7182 35.7327L29.9026 35.9483C30.1051 36.1851 30.2063 36.3035 30.2519 36.45C30.2974 36.5965 30.2821 36.7545 30.2515 37.0705L30.2236 37.3581C30.1159 38.47 30.062 39.0259 30.3876 39.2731C30.7131 39.5202 31.2025 39.2949 32.1813 38.8442L32.4345 38.7277C32.7127 38.5996 32.8517 38.5356 32.9991 38.5356C33.1466 38.5356 33.2856 38.5996 33.5638 38.7277L33.817 38.8442C34.7958 39.2949 35.2851 39.5202 35.6107 39.2731C35.9363 39.0259 35.8824 38.47 35.7747 37.3581L35.7468 37.0705C35.7162 36.7545 35.7009 36.5965 35.7464 36.45C35.792 36.3035 35.8932 36.1851 36.0957 35.9483L36.2801 35.7327C36.9928 34.8994 37.3491 34.4827 37.2247 34.0828C37.1004 33.6829 36.5777 33.5646 35.5323 33.3281L35.2619 33.2669C34.9648 33.1997 34.8163 33.1661 34.697 33.0756C34.5778 32.985 34.5013 32.8478 34.3483 32.5734L34.2091 32.3236C33.6707 31.3579 33.4016 30.875 32.9991 30.875Z" fill="#CE7D63"/>
<path d="M31.5827 18.8334H34.416C37.0873 18.8334 38.423 18.8334 39.2528 19.6632C40.0827 20.4931 40.0827 21.8287 40.0827 24.5V24.5255L36.051 22.3271C34.1486 21.2898 31.8495 21.2898 29.9472 22.3271L25.916 24.5252V24.5C25.916 21.8287 25.916 20.4931 26.7459 19.6632C27.5757 18.8334 28.9114 18.8334 31.5827 18.8334Z" fill="#CE7D63"/>
</svg>
