<svg width="52" height="52" viewBox="0 0 52 52" fill="none" xmlns="http://www.w3.org/2000/svg">
<rect x="0.5" y="0.5" width="51" height="51" rx="25.5" fill="#0F0F0F"/>
<rect x="0.5" y="0.5" width="51" height="51" rx="25.5" stroke="#262626"/>
<path fill-rule="evenodd" clip-rule="evenodd" d="M22.875 19.125L32.25 19.125C32.4158 19.125 32.5747 19.1908 32.6919 19.3081C32.8092 19.4253 32.875 19.5842 32.875 19.75V29.125C32.875 29.4702 32.5952 29.75 32.25 29.75C31.9048 29.75 31.625 29.4702 31.625 29.125V21.2589L20.1919 32.6919C19.9479 32.936 19.5521 32.936 19.3081 32.6919C19.064 32.4479 19.064 32.0521 19.3081 31.8081L30.7411 20.375L22.875 20.375C22.5298 20.375 22.25 20.0952 22.25 19.75C22.25 19.4048 22.5298 19.125 22.875 19.125Z" fill="#E7BEB1"/>
</svg>
