<svg width="74" height="74" viewBox="0 0 74 74" fill="none" xmlns="http://www.w3.org/2000/svg">
<rect x="0.5" y="0.5" width="73" height="73" rx="11.5" fill="#1F1F1F"/>
<rect x="0.5" y="0.5" width="73" height="73" rx="11.5" stroke="#333333"/>
<path d="M34.5071 28.1501L45.8485 39.4914C46.7026 40.3456 48.0874 40.3456 48.9415 39.4914C49.7957 38.6373 49.7957 37.2525 48.9415 36.3984L47.395 34.8518L49.4571 32.7898C51.7347 30.5121 51.7347 26.8192 49.4571 24.5415C47.1794 22.2638 43.4865 22.2638 41.2088 24.5415L39.1468 26.6036L37.6002 25.057C36.7461 24.2029 35.3613 24.2029 34.5071 25.057C33.653 25.9112 33.653 27.296 34.5071 28.1501Z" fill="#CE7D63"/>
<path d="M34.5511 31.1993L26.6696 39.0807C26.0236 39.7267 25.7006 40.0497 25.4956 40.4366C25.3588 40.6947 25.2616 40.9718 25.2072 41.2588C25.1256 41.689 25.176 42.143 25.2769 43.051L25.3517 43.7243C25.3793 43.9721 25.393 44.096 25.3965 44.2148C25.4175 44.9352 25.171 45.6378 24.7047 46.1871C24.6277 46.2778 24.5396 46.3659 24.3633 46.5422L23.4726 47.4329C22.6185 48.287 22.6185 49.6718 23.4726 50.5259C24.3268 51.3801 25.7116 51.3801 26.5657 50.5259L27.4564 49.6352C27.6327 49.459 27.7208 49.3709 27.8114 49.2939C28.3608 48.8275 29.0634 48.5811 29.7837 48.6021C29.9026 48.6055 30.0265 48.6193 30.2742 48.6468L30.9476 48.7216C31.8556 48.8225 32.3096 48.873 32.7398 48.7914C33.0267 48.737 33.3039 48.6397 33.562 48.503C33.9489 48.2979 34.2719 47.9749 34.9179 47.3289L36.9556 45.291L34.3299 42.6653C33.915 42.2503 33.915 41.5776 34.3299 41.1627C34.7448 40.7477 35.4176 40.7477 35.8325 41.1627L38.4583 43.7885L39.789 42.4577L37.1632 39.8319C36.7483 39.417 36.7483 38.7443 37.1632 38.3293C37.5782 37.9144 38.2509 37.9144 38.6659 38.3293L41.2917 40.9551L42.7993 39.4475L34.5511 31.1993Z" fill="#CE7D63"/>
</svg>
