<svg width="74" height="74" viewBox="0 0 74 74" fill="none" xmlns="http://www.w3.org/2000/svg">
<rect x="0.5" y="0.5" width="73" height="73" rx="11.5" fill="#1F1F1F"/>
<rect x="0.5" y="0.5" width="73" height="73" rx="11.5" stroke="#333333"/>
<path fill-rule="evenodd" clip-rule="evenodd" d="M27.3277 24.493C25.668 26.1527 25.668 28.824 25.668 34.1666V39.8333C25.668 45.1758 25.668 47.8471 27.3277 49.5069C28.9874 51.1666 31.6587 51.1666 37.0013 51.1666C42.3439 51.1666 45.0152 51.1666 46.6749 49.5069C48.3346 47.8471 48.3346 45.1758 48.3346 39.8333V34.1666C48.3346 28.824 48.3346 26.1527 46.6749 24.493C45.0152 22.8333 42.3439 22.8333 37.0013 22.8333C31.6587 22.8333 28.9874 22.8333 27.3277 24.493ZM32.7513 26.0208C32.1645 26.0208 31.6888 26.4964 31.6888 27.0833C31.6888 27.6701 32.1645 28.1458 32.7513 28.1458H41.2513C41.8381 28.1458 42.3138 27.6701 42.3138 27.0833C42.3138 26.4964 41.8381 26.0208 41.2513 26.0208H32.7513ZM37.0013 46.9166C38.5661 46.9166 39.8346 45.6481 39.8346 44.0833C39.8346 42.5184 38.5661 41.2499 37.0013 41.2499C35.4365 41.2499 34.168 42.5184 34.168 44.0833C34.168 45.6481 35.4365 46.9166 37.0013 46.9166Z" fill="#CE7D63"/>
</svg>
