<svg width="74" height="74" viewBox="0 0 74 74" fill="none" xmlns="http://www.w3.org/2000/svg">
<rect x="0.5" y="0.5" width="73" height="73" rx="11.5" fill="#1F1F1F"/>
<rect x="0.5" y="0.5" width="73" height="73" rx="11.5" stroke="#333333"/>
<path d="M22.832 29.2083C22.832 25.6874 25.6862 22.8333 29.207 22.8333C32.7278 22.8333 35.582 25.6874 35.582 29.2083V33.4583C35.582 33.9523 35.582 34.1993 35.5277 34.402C35.3804 34.952 34.9508 35.3816 34.4008 35.5289C34.1981 35.5833 33.9511 35.5833 33.457 35.5833H29.207C25.6862 35.5833 22.832 32.7291 22.832 29.2083Z" fill="#CE7D63"/>
<path d="M38.4154 40.5416C38.4154 40.0475 38.4154 39.8005 38.4697 39.5978C38.617 39.0479 39.0466 38.6183 39.5966 38.4709C39.7993 38.4166 40.0463 38.4166 40.5404 38.4166H44.7904C48.3112 38.4166 51.1654 41.2708 51.1654 44.7916C51.1654 48.3124 48.3112 51.1666 44.7904 51.1666C41.2696 51.1666 38.4154 48.3124 38.4154 44.7916V40.5416Z" fill="#CE7D63"/>
<path d="M22.832 44.7916C22.832 41.2708 25.6862 38.4166 29.207 38.4166H33.032C33.9246 38.4166 34.3709 38.4166 34.7118 38.5903C35.0117 38.7431 35.2555 38.9869 35.4083 39.2868C35.582 39.6277 35.582 40.074 35.582 40.9666V44.7916C35.582 48.3124 32.7278 51.1666 29.207 51.1666C25.6862 51.1666 22.832 48.3124 22.832 44.7916Z" fill="#CE7D63"/>
<path d="M38.4154 29.2083C38.4154 25.6874 41.2696 22.8333 44.7904 22.8333C48.3112 22.8333 51.1654 25.6874 51.1654 29.2083C51.1654 32.7291 48.3112 35.5833 44.7904 35.5833H40.2368C40.0253 35.5833 39.9196 35.5833 39.8307 35.5732C39.0918 35.49 38.5086 34.9068 38.4254 34.1679C38.4154 34.079 38.4154 33.9733 38.4154 33.7618V29.2083Z" fill="#CE7D63"/>
</svg>
