<svg width="74" height="74" viewBox="0 0 74 74" fill="none" xmlns="http://www.w3.org/2000/svg">
<rect x="0.5" y="0.5" width="73" height="73" rx="11.5" fill="#1F1F1F"/>
<rect x="0.5" y="0.5" width="73" height="73" rx="11.5" stroke="#333333"/>
<path fill-rule="evenodd" clip-rule="evenodd" d="M37.0724 21.7708H36.925C35.6522 21.7707 34.5908 21.7707 33.7482 21.884C32.8588 22.0035 32.0558 22.2666 31.4106 22.9118C30.7653 23.5571 30.5023 24.36 30.3827 25.2494C30.2695 26.092 30.2695 27.1534 30.2695 28.4262V28.5364C27.4062 28.63 25.6868 28.9646 24.4918 30.1596C22.832 31.8194 22.832 34.4907 22.832 39.8333C22.832 45.1758 22.832 47.8471 24.4918 49.5069C26.1515 51.1666 28.8228 51.1666 34.1654 51.1666H39.832C45.1746 51.1666 47.8459 51.1666 49.5056 49.5069C51.1654 47.8471 51.1654 45.1758 51.1654 39.8333C51.1654 34.4907 51.1654 31.8194 49.5056 30.1596C48.3106 28.9646 46.5912 28.63 43.7279 28.5364V28.4263C43.7279 27.1534 43.7279 26.092 43.6147 25.2494C43.4951 24.36 43.2321 23.5571 42.5868 22.9118C41.9416 22.2666 41.1386 22.0035 40.2492 21.884C39.4066 21.7707 38.3452 21.7707 37.0724 21.7708ZM41.6029 28.5026V28.4999C41.6029 27.1342 41.6006 26.2169 41.5086 25.5326C41.4207 24.8788 41.2688 24.599 41.0842 24.4144C40.8996 24.2298 40.6198 24.0779 39.9661 23.99C39.2818 23.898 38.3644 23.8958 36.9987 23.8958C35.633 23.8958 34.7156 23.898 34.0313 23.99C33.3776 24.0779 33.0978 24.2298 32.9132 24.4144C32.7286 24.599 32.5767 24.8788 32.4888 25.5326C32.3968 26.2169 32.3945 27.1342 32.3945 28.4999V28.5026C32.9499 28.4999 33.5393 28.4999 34.1654 28.4999H39.832C40.4581 28.4999 41.0475 28.4999 41.6029 28.5026ZM44.082 32.7499C44.082 33.5323 43.4478 34.1666 42.6654 34.1666C41.883 34.1666 41.2487 33.5323 41.2487 32.7499C41.2487 31.9675 41.883 31.3333 42.6654 31.3333C43.4478 31.3333 44.082 31.9675 44.082 32.7499ZM31.332 34.1666C32.1144 34.1666 32.7487 33.5323 32.7487 32.7499C32.7487 31.9675 32.1144 31.3333 31.332 31.3333C30.5496 31.3333 29.9154 31.9675 29.9154 32.7499C29.9154 33.5323 30.5496 34.1666 31.332 34.1666Z" fill="#CE7D63"/>
</svg>
