<svg width="56" height="56" viewBox="0 0 56 56" fill="none" xmlns="http://www.w3.org/2000/svg">
<rect x="0.5" y="0.5" width="55" height="55" rx="9.5" fill="#1F1F1F"/>
<rect x="0.5" y="0.5" width="55" height="55" rx="9.5" stroke="#333333"/>
<path d="M40.624 20.0227C39.7999 20.3773 38.9336 20.6243 38.0464 20.7574C38.4612 20.6863 39.0715 19.9397 39.3144 19.6375C39.6835 19.1817 39.9648 18.6613 40.144 18.1028C40.144 18.0613 40.1855 18.0021 40.144 17.9724C40.1231 17.961 40.0997 17.9551 40.0759 17.9551C40.0521 17.9551 40.0286 17.961 40.0077 17.9724C39.0444 18.4941 38.0191 18.8923 36.9561 19.1575C36.9191 19.1689 36.8796 19.1699 36.842 19.1605C36.8045 19.1511 36.7701 19.1316 36.7428 19.1042C36.66 19.0057 36.571 18.9127 36.4761 18.8257C36.0426 18.4373 35.5507 18.1193 35.0185 17.8836C34.3 17.5888 33.524 17.4612 32.749 17.5103C31.997 17.5577 31.2628 17.7594 30.5921 18.1028C29.9317 18.4648 29.3512 18.9566 28.8856 19.5486C28.3958 20.158 28.0423 20.8651 27.8486 21.6225C27.689 22.343 27.6709 23.0876 27.7953 23.815C27.7953 23.9394 27.7953 23.9572 27.6886 23.9394C23.4638 23.3172 19.9974 21.8181 17.165 18.6005C17.0405 18.4583 16.9754 18.4583 16.8746 18.6005C15.6421 20.473 16.2406 23.4357 17.7812 24.8993C17.9886 25.0949 18.2019 25.2845 18.4271 25.4623C17.7207 25.4121 17.0316 25.2207 16.4006 24.8993C16.2821 24.8223 16.2169 24.8638 16.211 25.006C16.1942 25.2031 16.1942 25.4014 16.211 25.5985C16.3346 26.5434 16.707 27.4385 17.29 28.1923C17.873 28.946 18.6458 29.5314 19.5293 29.8886C19.7446 29.9808 19.969 30.0503 20.1988 30.096C19.5449 30.2247 18.8742 30.2447 18.2138 30.1552C18.0716 30.1256 18.0183 30.2026 18.0716 30.3389C18.9426 32.7091 20.8329 33.432 22.2194 33.835C22.409 33.8646 22.5987 33.8646 22.812 33.912C22.812 33.912 22.812 33.912 22.7764 33.9475C22.3676 34.6942 20.7143 35.1978 19.9559 35.4585C18.5715 35.9558 17.0955 36.1459 15.6303 36.0155C15.3992 35.98 15.3459 35.9859 15.2866 36.0155C15.2273 36.0452 15.2866 36.1103 15.3518 36.1696C15.6481 36.3651 15.9443 36.537 16.2525 36.7029C17.1698 37.2032 18.1395 37.6007 19.1441 37.888C24.3467 39.322 30.201 38.2672 34.1059 34.386C37.1753 31.3403 38.2538 27.1392 38.2538 22.9321C38.2538 22.7721 38.4493 22.6773 38.5619 22.5943C39.3384 21.9893 40.0231 21.2747 40.5943 20.473C40.6933 20.3535 40.744 20.2013 40.7366 20.0464C40.7366 19.9575 40.7366 19.9753 40.624 20.0227Z" fill="#CE7D63"/>
</svg>
