<svg width="58" height="56" viewBox="0 0 58 56" fill="none" xmlns="http://www.w3.org/2000/svg">
<rect x="0.5" y="0.5" width="56.2174" height="55" rx="9.5" fill="#1F1F1F"/>
<rect x="0.5" y="0.5" width="56.2174" height="55" rx="9.5" stroke="#333333"/>
<path d="M28.4944 16.02C35.1194 16.02 40.4796 21.3802 40.4796 27.9951C40.4796 34.6101 35.1194 39.9803 28.4944 39.9803C21.8695 39.9803 16.5093 34.6201 16.5093 28.0052C16.5093 21.3903 21.8695 16.02 28.4944 16.02Z" fill="#E7BEB1"/>
<path d="M28.4954 40.8334C21.4087 40.8334 15.647 35.0818 15.647 28.0051C15.647 20.9184 21.4087 15.1667 28.4954 15.1667C35.5821 15.1667 41.3438 20.9184 41.3438 27.9951C41.3438 35.0717 35.5821 40.8334 28.4954 40.8334ZM39.3262 29.7517C38.9548 29.6312 35.9334 28.7379 32.4904 29.2799C33.9258 33.2147 34.508 36.4268 34.6184 37.0893C37.0877 35.4331 38.8444 32.8032 39.3262 29.7517ZM32.7815 38.1032C32.6209 37.1395 31.9785 33.7869 30.4427 29.7918C30.4226 29.8019 30.3925 29.8119 30.3724 29.8119C24.1791 31.97 21.9608 36.2562 21.76 36.6577C23.617 38.1032 25.9558 38.9664 28.4954 38.9664C30.0111 38.9764 31.4666 38.6653 32.7815 38.1032ZM20.3447 35.3428C20.5956 34.9212 23.607 29.9424 29.2683 28.1055C29.4088 28.0553 29.5594 28.0152 29.6999 27.975C29.4289 27.3527 29.1278 26.7303 28.8065 26.118C23.3259 27.7542 18.0059 27.6839 17.524 27.6739C17.524 27.7843 17.514 27.8947 17.514 28.0051C17.524 30.8257 18.5881 33.3954 20.3447 35.3428ZM17.7549 25.7667C18.2468 25.7767 22.7638 25.7968 27.9031 24.4317C26.0863 21.1995 24.1189 18.4893 23.8378 18.0978C20.7562 19.5432 18.4676 22.3739 17.7549 25.7667ZM25.9257 17.355C26.2268 17.7565 28.2244 20.4667 30.0211 23.7692C33.9258 22.3036 35.572 20.0953 35.7728 19.8143C33.8355 18.0978 31.2859 17.0539 28.4954 17.0539C27.612 17.0539 26.7488 17.1643 25.9257 17.355ZM36.9874 21.079C36.7565 21.3902 34.9196 23.7491 30.8643 25.4053C31.1152 25.9273 31.3662 26.4593 31.5971 26.9913C31.6774 27.182 31.7577 27.3727 31.838 27.5534C35.4917 27.0917 39.1154 27.8345 39.4767 27.9047C39.4466 25.325 38.5232 22.9461 36.9874 21.079Z" fill="#CE7D63"/>
</svg>
