<svg width="56" height="56" viewBox="0 0 56 56" fill="none" xmlns="http://www.w3.org/2000/svg">
<rect x="0.5" y="0.5" width="55" height="55" rx="9.5" fill="#1F1F1F"/>
<rect x="0.5" y="0.5" width="55" height="55" rx="9.5" stroke="#333333"/>
<path d="M25.5155 27.3104C25.5155 27.3104 27.9565 27.1249 27.9565 24.2041C27.9565 21.2857 26.301 19.8471 23.7705 19.8471L15.1016 19.8334V35.9616H23.9721C23.9721 35.9616 28.4073 36.1019 28.4073 31.1231C28.4073 31.1231 28.7331 27.3104 25.5155 27.3104ZM18.3272 22.2526H22.7625C22.7625 22.2526 24.2801 22.2776 24.2801 24.2452C24.2801 26.2847 22.7625 26.2847 22.7625 26.2847H18.3272V22.2526ZM23.1657 33.5423H18.3272V28.7039H23.1657C23.1657 28.7039 25.5849 28.7289 25.5849 31.1231C25.5849 33.5173 23.514 33.5423 23.1657 33.5423Z" fill="#D48E77"/>
<path d="M35.262 23.8656C29.2035 23.8656 29.214 29.9137 29.214 29.9137C29.214 29.9137 28.8108 35.9617 35.262 35.9617C35.262 35.9617 40.9069 35.9617 40.9069 31.1233H37.6813C37.6813 31.1233 37.6813 33.5425 35.262 33.5425C35.262 33.5425 32.8428 33.5425 32.8428 30.3169C32.8428 30.3169 39.2941 30.3169 40.9069 30.3169C40.9069 28.7041 40.9069 23.8656 35.262 23.8656ZM32.8428 28.7041C32.8428 28.7041 32.7896 26.2848 35.262 26.2848C37.7337 26.2848 37.6813 28.7041 37.6813 28.7041H32.8428Z" fill="#D48E77"/>
<path d="M38.4879 21.4463H32.0366V23.0591H38.4879V21.4463Z" fill="#D48E77"/>
</svg>
