<svg width="56" height="56" viewBox="0 0 56 56" fill="none" xmlns="http://www.w3.org/2000/svg">
<rect x="0.5" y="0.5" width="55" height="55" rx="9.5" fill="#1F1F1F"/>
<rect x="0.5" y="0.5" width="55" height="55" rx="9.5" stroke="#333333"/>
<path d="M24.1102 28C24.1102 25.8523 25.8518 24.1108 28.0008 24.1108C30.1498 24.1108 31.8923 25.8523 31.8923 28C31.8923 30.1477 30.1498 31.8892 28.0008 31.8892C25.8518 31.8892 24.1102 30.1477 24.1102 28ZM22.0065 28C22.0065 31.3087 24.6901 33.9907 28.0008 33.9907C31.3114 33.9907 33.9951 31.3087 33.9951 28C33.9951 24.6914 31.3114 22.0093 28.0008 22.0093C24.6901 22.0093 22.0065 24.6914 22.0065 28ZM32.8315 21.7718C32.8314 22.0487 32.9135 22.3194 33.0673 22.5497C33.2211 22.78 33.4398 22.9595 33.6958 23.0656C33.9517 23.1716 34.2333 23.1995 34.5051 23.1456C34.7769 23.0917 35.0265 22.9584 35.2225 22.7627C35.4185 22.567 35.552 22.3176 35.6062 22.046C35.6603 21.7745 35.6327 21.493 35.5268 21.2371C35.4208 20.9813 35.2414 20.7625 35.0111 20.6086C34.7808 20.4547 34.51 20.3725 34.2329 20.3724H34.2324C33.861 20.3725 33.5049 20.52 33.2422 20.7824C32.9795 21.0448 32.8318 21.4006 32.8315 21.7718ZM23.2846 37.4964C22.1465 37.4446 21.5279 37.2551 21.1168 37.095C20.5718 36.883 20.1829 36.6304 19.774 36.2224C19.3652 35.8143 19.1121 35.4261 18.9009 34.8814C18.7406 34.4707 18.551 33.8523 18.4993 32.7148C18.4427 31.4851 18.4314 31.1157 18.4314 28.0001C18.4314 24.8846 18.4436 24.5162 18.4993 23.2854C18.5511 22.1479 18.7421 21.5307 18.9009 21.1188C19.113 20.5741 19.3657 20.1855 19.774 19.7769C20.1823 19.3683 20.5708 19.1154 21.1168 18.9042C21.5277 18.7441 22.1465 18.5546 23.2846 18.5029C24.5151 18.4463 24.8848 18.435 28.0008 18.435C31.1168 18.435 31.4868 18.4473 32.7183 18.5029C33.8565 18.5547 34.474 18.7456 34.8862 18.9042C35.4312 19.1154 35.8201 19.3688 36.2289 19.7769C36.6378 20.185 36.8899 20.5741 37.1021 21.1188C37.2624 21.5295 37.4519 22.1479 37.5037 23.2854C37.5603 24.5162 37.5716 24.8846 37.5716 28.0001C37.5716 31.1157 37.5603 31.484 37.5037 32.7148C37.4518 33.8523 37.2613 34.4705 37.1021 34.8814C36.8899 35.4261 36.6372 35.8147 36.2289 36.2224C35.8206 36.6301 35.4312 36.883 34.8862 37.095C34.4753 37.2552 33.8565 37.4447 32.7183 37.4964C31.4878 37.5529 31.1182 37.5642 28.0008 37.5642C24.8834 37.5642 24.5148 37.5529 23.2846 37.4964ZM23.188 16.404C21.9452 16.4606 21.0961 16.6575 20.3545 16.9459C19.5864 17.2437 18.9363 17.6433 18.2865 18.2916C17.6368 18.9399 17.2381 19.5907 16.9401 20.3583C16.6515 21.0999 16.4544 21.9481 16.3978 23.1901C16.3403 24.434 16.3271 24.8317 16.3271 28C16.3271 31.1683 16.3403 31.566 16.3978 32.8099C16.4544 34.052 16.6515 34.9001 16.9401 35.6417C17.2381 36.4089 17.6369 37.0604 18.2865 37.7084C18.9362 38.3564 19.5864 38.7554 20.3545 39.0541C21.0975 39.3425 21.9452 39.5394 23.188 39.596C24.4333 39.6525 24.8306 39.6666 28.0008 39.6666C31.171 39.6666 31.5689 39.6535 32.8136 39.596C34.0564 39.5394 34.905 39.3425 35.6471 39.0541C36.4147 38.7554 37.0653 38.3567 37.715 37.7084C38.3647 37.0601 38.7627 36.4089 39.0615 35.6417C39.3501 34.9001 39.5481 34.0519 39.6037 32.8099C39.6603 31.5651 39.6735 31.1683 39.6735 28C39.6735 24.8317 39.6603 24.434 39.6037 23.1901C39.5471 21.948 39.3501 21.0994 39.0615 20.3583C38.7627 19.5912 38.3637 18.9409 37.715 18.2916C37.0663 17.6423 36.4147 17.2437 35.648 16.9459C34.905 16.6575 34.0563 16.4597 32.8145 16.404C31.5698 16.3475 31.1719 16.3334 28.0017 16.3334C24.8315 16.3334 24.4333 16.3465 23.188 16.404Z" fill="#CE7D63"/>
<path d="M24.1102 28C24.1102 25.8523 25.8518 24.1108 28.0008 24.1108C30.1498 24.1108 31.8923 25.8523 31.8923 28C31.8923 30.1477 30.1498 31.8892 28.0008 31.8892C25.8518 31.8892 24.1102 30.1477 24.1102 28ZM22.0065 28C22.0065 31.3087 24.6901 33.9907 28.0008 33.9907C31.3114 33.9907 33.9951 31.3087 33.9951 28C33.9951 24.6914 31.3114 22.0093 28.0008 22.0093C24.6901 22.0093 22.0065 24.6914 22.0065 28ZM32.8315 21.7718C32.8314 22.0487 32.9135 22.3194 33.0673 22.5497C33.2211 22.78 33.4398 22.9595 33.6958 23.0656C33.9517 23.1716 34.2333 23.1995 34.5051 23.1456C34.7769 23.0917 35.0265 22.9584 35.2225 22.7627C35.4185 22.567 35.552 22.3176 35.6062 22.046C35.6603 21.7745 35.6327 21.493 35.5268 21.2371C35.4208 20.9813 35.2414 20.7625 35.0111 20.6086C34.7808 20.4547 34.51 20.3725 34.2329 20.3724H34.2324C33.861 20.3725 33.5049 20.52 33.2422 20.7824C32.9795 21.0448 32.8318 21.4006 32.8315 21.7718ZM23.2846 37.4964C22.1465 37.4446 21.5279 37.2551 21.1168 37.095C20.5718 36.883 20.1829 36.6304 19.774 36.2224C19.3652 35.8143 19.1121 35.4261 18.9009 34.8814C18.7406 34.4707 18.551 33.8523 18.4993 32.7148C18.4427 31.4851 18.4314 31.1157 18.4314 28.0001C18.4314 24.8846 18.4436 24.5162 18.4993 23.2854C18.5511 22.1479 18.7421 21.5307 18.9009 21.1188C19.113 20.5741 19.3657 20.1855 19.774 19.7769C20.1823 19.3683 20.5708 19.1154 21.1168 18.9042C21.5277 18.7441 22.1465 18.5546 23.2846 18.5029C24.5151 18.4463 24.8848 18.435 28.0008 18.435C31.1168 18.435 31.4868 18.4473 32.7183 18.5029C33.8565 18.5547 34.474 18.7456 34.8862 18.9042C35.4312 19.1154 35.8201 19.3688 36.2289 19.7769C36.6378 20.185 36.8899 20.5741 37.1021 21.1188C37.2624 21.5295 37.4519 22.1479 37.5037 23.2854C37.5603 24.5162 37.5716 24.8846 37.5716 28.0001C37.5716 31.1157 37.5603 31.484 37.5037 32.7148C37.4518 33.8523 37.2613 34.4705 37.1021 34.8814C36.8899 35.4261 36.6372 35.8147 36.2289 36.2224C35.8206 36.6301 35.4312 36.883 34.8862 37.095C34.4753 37.2552 33.8565 37.4447 32.7183 37.4964C31.4878 37.5529 31.1182 37.5642 28.0008 37.5642C24.8834 37.5642 24.5148 37.5529 23.2846 37.4964ZM23.188 16.404C21.9452 16.4606 21.0961 16.6575 20.3545 16.9459C19.5864 17.2437 18.9363 17.6433 18.2865 18.2916C17.6368 18.9399 17.2381 19.5907 16.9401 20.3583C16.6515 21.0999 16.4544 21.9481 16.3978 23.1901C16.3403 24.434 16.3271 24.8317 16.3271 28C16.3271 31.1683 16.3403 31.566 16.3978 32.8099C16.4544 34.052 16.6515 34.9001 16.9401 35.6417C17.2381 36.4089 17.6369 37.0604 18.2865 37.7084C18.9362 38.3564 19.5864 38.7554 20.3545 39.0541C21.0975 39.3425 21.9452 39.5394 23.188 39.596C24.4333 39.6525 24.8306 39.6666 28.0008 39.6666C31.171 39.6666 31.5689 39.6535 32.8136 39.596C34.0564 39.5394 34.905 39.3425 35.6471 39.0541C36.4147 38.7554 37.0653 38.3567 37.715 37.7084C38.3647 37.0601 38.7627 36.4089 39.0615 35.6417C39.3501 34.9001 39.5481 34.0519 39.6037 32.8099C39.6603 31.5651 39.6735 31.1683 39.6735 28C39.6735 24.8317 39.6603 24.434 39.6037 23.1901C39.5471 21.948 39.3501 21.0994 39.0615 20.3583C38.7627 19.5912 38.3637 18.9409 37.715 18.2916C37.0663 17.6423 36.4147 17.2437 35.648 16.9459C34.905 16.6575 34.0563 16.4597 32.8145 16.404C31.5698 16.3475 31.1719 16.3334 28.0017 16.3334C24.8315 16.3334 24.4333 16.3465 23.188 16.404Z" fill="#CE7D63"/>
</svg>
