<svg width="66" height="66" viewBox="0 0 66 66" fill="none" xmlns="http://www.w3.org/2000/svg">
<rect x="0.5" y="0.5" width="65" height="65" rx="11.5" fill="#1F1F1F"/>
<rect x="0.5" y="0.5" width="65" height="65" rx="11.5" stroke="#333333"/>
<path d="M28.9676 23.6618C30.7621 20.4428 31.6593 18.8333 33.0007 18.8333C34.342 18.8333 35.2393 20.4428 37.0337 23.6618L37.4979 24.4946C38.0078 25.4093 38.2628 25.8667 38.6603 26.1685C39.0578 26.4703 39.5529 26.5823 40.5431 26.8063L41.4446 27.0103C44.9292 27.7987 46.6715 28.1929 47.086 29.5259C47.5005 30.8588 46.3127 32.2478 43.9372 35.0256L43.3226 35.7443C42.6475 36.5337 42.31 36.9284 42.1582 37.4167C42.0063 37.905 42.0574 38.4316 42.1594 39.4848L42.2523 40.4436C42.6115 44.1499 42.7911 46.0031 41.7059 46.8269C40.6207 47.6507 38.9894 46.8996 35.7268 45.3974L34.8827 45.0088C33.9556 44.5819 33.492 44.3685 33.0007 44.3685C32.5093 44.3685 32.0457 44.5819 31.1186 45.0088L30.2745 45.3974C27.0119 46.8996 25.3807 47.6507 24.2954 46.8269C23.2102 46.0031 23.3898 44.1499 23.749 40.4437L23.8419 39.4848C23.9439 38.4316 23.995 37.905 23.8431 37.4167C23.6913 36.9284 23.3538 36.5337 22.6787 35.7443L22.0641 35.0256C19.6886 32.2478 18.5008 30.8588 18.9153 29.5259C19.3298 28.1929 21.0721 27.7987 24.5567 27.0103L25.4582 26.8063C26.4484 26.5823 26.9435 26.4703 27.341 26.1685C27.7385 25.8667 27.9935 25.4093 28.5034 24.4946L28.9676 23.6618Z" fill="#CE7D63"/>
</svg>
