<svg width="66" height="66" viewBox="0 0 66 66" fill="none" xmlns="http://www.w3.org/2000/svg">
<rect x="0.5" y="0.5" width="65" height="65" rx="11.5" fill="#1F1F1F"/>
<rect x="0.5" y="0.5" width="65" height="65" rx="11.5" stroke="#333333"/>
<path d="M33.8299 46.3367C34.6597 47.1666 35.9954 47.1666 38.6667 47.1666H41.5C44.1713 47.1666 45.5069 47.1666 46.3368 46.3367C47.1667 45.5069 47.1667 44.1712 47.1667 41.4999V24.4999C47.1667 21.8286 47.1667 20.493 46.3368 19.6631C45.5069 18.8333 44.1713 18.8333 41.5 18.8333H38.6667C35.9954 18.8333 34.6597 18.8333 33.8299 19.6631C33.1182 20.3748 33.0168 21.4584 33.0024 23.4374L35.8333 23.4374C36.4201 23.4374 36.8958 23.9131 36.8958 24.4999C36.8958 25.0867 36.4201 25.5624 35.8333 25.5624H33V27.6874H37.25C37.8368 27.6874 38.3125 28.1631 38.3125 28.7499C38.3125 29.3367 37.8368 29.8124 37.25 29.8124H33V31.9374H35.8333C36.4201 31.9374 36.8958 32.4131 36.8958 32.9999C36.8958 33.5867 36.4201 34.0624 35.8333 34.0624H33V36.1874L37.25 36.1874C37.8368 36.1874 38.3125 36.6631 38.3125 37.2499C38.3125 37.8367 37.8368 38.3124 37.25 38.3124L33 38.3124V40.4374H35.8333C36.4201 40.4374 36.8958 40.9131 36.8958 41.4999C36.8958 42.0867 36.4201 42.5624 35.8333 42.5624H33.0024C33.0168 44.5414 33.1182 45.625 33.8299 46.3367Z" fill="#CE7D63"/>
<path d="M27.334 37.524L27.334 26.22C26.2446 26.6691 24.8076 27.0542 23.0842 27.0542C21.3606 27.0542 19.9235 26.6689 18.834 26.2198L18.834 37.524C18.834 38.4061 18.834 38.8472 18.8875 39.2801C18.9506 39.7906 19.0692 40.2928 19.241 40.7777C19.3868 41.1888 19.584 41.5833 19.9785 42.3723L22.0589 46.533C22.253 46.9213 22.6499 47.1666 23.084 47.1666C23.5181 47.1666 23.915 46.9213 24.1091 46.533L26.1895 42.3723C26.584 41.5833 26.7812 41.1888 26.9269 40.7777C27.0988 40.2928 27.2174 39.7906 27.2805 39.2801C27.334 38.8472 27.334 38.4061 27.334 37.524Z" fill="#CE7D63"/>
<path d="M27.334 23.0833C27.334 20.736 25.4312 18.8333 23.084 18.8333C20.7368 18.8333 18.834 20.736 18.834 23.0833L18.834 24.439C18.8713 24.4578 18.9093 24.4766 18.9481 24.4954C19.9128 24.9631 21.3204 25.4331 23.0842 25.4331C24.8481 25.4331 26.2557 24.9631 27.2204 24.4954C27.259 24.4767 27.2968 24.4579 27.334 24.4393V23.0833Z" fill="#CE7D63"/>
</svg>
