<svg width="66" height="66" viewBox="0 0 66 66" fill="none" xmlns="http://www.w3.org/2000/svg">
<rect x="0.5" y="0.5" width="65" height="65" rx="11.5" fill="#1F1F1F"/>
<rect x="0.5" y="0.5" width="65" height="65" rx="11.5" stroke="#333333"/>
<path fill-rule="evenodd" clip-rule="evenodd" d="M33 47.1666C40.0416 47.1666 45.75 41.4582 45.75 34.4166C45.75 27.375 40.0416 21.6666 33 21.6666C25.9584 21.6666 20.25 27.375 20.25 34.4166C20.25 41.4582 25.9584 47.1666 33 47.1666ZM33 27.6874C33.5868 27.6874 34.0625 28.1631 34.0625 28.7499V34.4166C34.0625 35.0034 33.5868 35.4791 33 35.4791C32.4132 35.4791 31.9375 35.0034 31.9375 34.4166V28.7499C31.9375 28.1631 32.4132 27.6874 33 27.6874Z" fill="#CE7D63"/>
<path fill-rule="evenodd" clip-rule="evenodd" d="M29.1042 18.8333C29.1042 18.2464 29.5799 17.7708 30.1667 17.7708H35.8333C36.4201 17.7708 36.8958 18.2464 36.8958 18.8333C36.8958 19.4201 36.4201 19.8958 35.8333 19.8958H30.1667C29.5799 19.8958 29.1042 19.4201 29.1042 18.8333Z" fill="#CE7D63"/>
</svg>
