<svg width="66" height="66" viewBox="0 0 66 66" fill="none" xmlns="http://www.w3.org/2000/svg">
<rect x="0.5" y="0.5" width="65" height="65" rx="11.5" fill="#1F1F1F"/>
<rect x="0.5" y="0.5" width="65" height="65" rx="11.5" stroke="#333333"/>
<path fill-rule="evenodd" clip-rule="evenodd" d="M20.25 30.7568C20.25 26.2269 20.25 23.962 20.7848 23.2C21.3196 22.438 23.4493 21.709 27.7086 20.251L28.5201 19.9733C30.7404 19.2133 31.8505 18.8333 33 18.8333C34.1495 18.8333 35.2596 19.2133 37.4799 19.9733L38.2914 20.251C42.5507 21.709 44.6804 22.438 45.2152 23.2C45.75 23.962 45.75 26.2269 45.75 30.7568V32.9877C45.75 40.975 39.7448 44.851 35.977 46.4969C34.955 46.9434 34.444 47.1666 33 47.1666C31.556 47.1666 31.045 46.9434 30.023 46.4969C26.2552 44.851 20.25 40.975 20.25 32.9877V30.7568ZM35.8333 28.7499C35.8333 30.3147 34.5648 31.5833 33 31.5833C31.4352 31.5833 30.1667 30.3147 30.1667 28.7499C30.1667 27.1851 31.4352 25.9166 33 25.9166C34.5648 25.9166 35.8333 27.1851 35.8333 28.7499ZM33 40.0833C38.6667 40.0833 38.6667 38.8147 38.6667 37.2499C38.6667 35.6851 36.1296 34.4166 33 34.4166C29.8704 34.4166 27.3333 35.6851 27.3333 37.2499C27.3333 38.8147 27.3333 40.0833 33 40.0833Z" fill="#CE7D63"/>
</svg>
