<svg width="56" height="56" viewBox="0 0 56 56" fill="none" xmlns="http://www.w3.org/2000/svg">
<rect x="0.5" y="0.5" width="55" height="55" rx="9.5" fill="#1F1F1F"/>
<rect x="0.5" y="0.5" width="55" height="55" rx="9.5" stroke="#333333"/>
<path d="M18.7195 20.4069L20.4069 18.7195C21.9977 17.1287 22.7931 16.3333 23.7816 16.3333C24.77 16.3333 25.5654 17.1287 27.1562 18.7195L24.344 21.5318L18.7195 27.1562L18.7195 27.1562C17.1287 25.5654 16.3333 24.77 16.3333 23.7816C16.3333 22.7931 17.1287 21.9977 18.7195 20.4069L18.7195 20.4069Z" fill="#CE7D63"/>
<path d="M37.2803 35.593L35.593 37.2803C34.0021 38.8712 33.2067 39.6666 32.2183 39.6666C31.2299 39.6666 30.4344 38.8712 28.8436 37.2803L28.8436 37.2803L34.4681 31.6558L37.2803 28.8436C38.8712 30.4344 39.6666 31.2299 39.6666 32.2183C39.6666 33.2067 38.8712 34.0021 37.2803 35.593Z" fill="#CE7D63"/>
<path d="M25.9188 36.4875C26.29 36.198 26.6267 35.8613 27.3 35.188L35.9285 26.5595C34.7542 26.0707 33.3633 25.2678 32.0478 23.9524C30.7322 22.6367 29.9293 21.2456 29.4405 20.0711L20.8119 28.6998L20.8118 28.6999C20.1385 29.3732 19.8018 29.7098 19.5123 30.0811C19.1707 30.519 18.8779 30.9928 18.639 31.4941C18.4364 31.9191 18.2859 32.3708 17.9847 33.2742L16.3968 38.0381C16.2486 38.4827 16.3643 38.9728 16.6957 39.3042C17.027 39.6355 17.5172 39.7513 17.9617 39.6031L22.7256 38.0151C23.629 37.714 24.0807 37.5634 24.5057 37.3609C25.0071 37.1219 25.4809 36.8291 25.9188 36.4875Z" fill="#CE7D63"/>
<path d="M38.3228 24.1651C40.1145 22.3735 40.1145 19.4686 38.3228 17.677C36.5312 15.8853 33.6263 15.8853 31.8347 17.677L30.7998 18.7119C30.814 18.7547 30.8287 18.798 30.8439 18.842C31.2232 19.9353 31.9389 21.3686 33.2853 22.7149C34.6316 24.0613 36.0649 24.777 37.1582 25.1563C37.202 25.1715 37.2452 25.1861 37.2878 25.2002L38.3228 24.1651Z" fill="#CE7D63"/>
</svg>
