<svg width="56" height="56" viewBox="0 0 56 56" fill="none" xmlns="http://www.w3.org/2000/svg">
<rect x="0.5" y="0.5" width="55" height="55" rx="9.5" fill="#1F1F1F"/>
<rect x="0.5" y="0.5" width="55" height="55" rx="9.5" stroke="#333333"/>
<path fill-rule="evenodd" clip-rule="evenodd" d="M20.0333 17.7001C18.6665 19.0669 18.6665 21.2668 18.6665 25.6666V30.3333C18.6665 34.733 18.6665 36.9329 20.0333 38.2998C21.4002 39.6666 23.6001 39.6666 27.9998 39.6666C32.3996 39.6666 34.5995 39.6666 35.9663 38.2998C37.3332 36.9329 37.3332 34.733 37.3332 30.3333V25.6666C37.3332 21.2668 37.3332 19.0669 35.9663 17.7001C34.5995 16.3333 32.3996 16.3333 27.9998 16.3333C23.6001 16.3333 21.4002 16.3333 20.0333 17.7001ZM24.4998 18.9583C24.0166 18.9583 23.6248 19.35 23.6248 19.8333C23.6248 20.3165 24.0166 20.7083 24.4998 20.7083H31.4998C31.9831 20.7083 32.3748 20.3165 32.3748 19.8333C32.3748 19.35 31.9831 18.9583 31.4998 18.9583H24.4998ZM27.9998 36.1666C29.2885 36.1666 30.3332 35.1219 30.3332 33.8333C30.3332 32.5446 29.2885 31.4999 27.9998 31.4999C26.7112 31.4999 25.6665 32.5446 25.6665 33.8333C25.6665 35.1219 26.7112 36.1666 27.9998 36.1666Z" fill="#CE7D63"/>
</svg>
