<svg width="56" height="56" viewBox="0 0 56 56" fill="none" xmlns="http://www.w3.org/2000/svg">
<rect x="0.5" y="0.5" width="55" height="55" rx="9.5" fill="#1F1F1F"/>
<rect x="0.5" y="0.5" width="55" height="55" rx="9.5" stroke="#333333"/>
<path fill-rule="evenodd" clip-rule="evenodd" d="M39.6666 28C39.6666 34.4434 34.4432 39.6667 27.9999 39.6667C21.5566 39.6667 16.3333 34.4434 16.3333 28C16.3333 21.5567 21.5566 16.3334 27.9999 16.3334C34.4432 16.3334 39.6666 21.5567 39.6666 28ZM29.736 21.5203C30.2028 21.6453 30.4798 22.1251 30.3547 22.5919L27.3352 33.8611C27.2101 34.3278 26.7303 34.6048 26.2635 34.4798C25.7967 34.3547 25.5197 33.8749 25.6448 33.4081L28.6643 22.139C28.7894 21.6722 29.2692 21.3952 29.736 21.5203ZM31.4645 23.8813C31.8062 23.5396 32.3603 23.5396 32.702 23.8813L32.945 24.1244C33.6863 24.8656 34.3044 25.4836 34.7291 26.0403C35.1773 26.6278 35.4918 27.2486 35.4918 28C35.4918 28.7515 35.1773 29.3723 34.7291 29.9598C34.3044 30.5165 33.6863 31.1345 32.9451 31.8757L32.702 32.1188C32.3603 32.4605 31.8062 32.4605 31.4645 32.1188C31.1228 31.7771 31.1228 31.223 31.4645 30.8813L31.6647 30.6812C32.46 29.8859 32.9929 29.3504 33.3378 28.8983C33.6673 28.4664 33.7418 28.2151 33.7418 28C33.7418 27.785 33.6673 27.5337 33.3378 27.1018C32.9929 26.6497 32.46 26.1142 31.6647 25.3189L31.4645 25.1188C31.1228 24.7771 31.1228 24.223 31.4645 23.8813ZM23.2981 23.8813C23.6398 23.5396 24.1938 23.5396 24.5355 23.8813C24.8772 24.223 24.8772 24.7771 24.5355 25.1188L24.3354 25.3189C23.5401 26.1142 23.0072 26.6497 22.6623 27.1018C22.3328 27.5337 22.2583 27.785 22.2583 28C22.2583 28.2151 22.3328 28.4664 22.6623 28.8983C23.0072 29.3504 23.5401 29.8859 24.3354 30.6812L24.5355 30.8813C24.8772 31.223 24.8772 31.7771 24.5355 32.1188C24.1938 32.4605 23.6398 32.4605 23.2981 32.1188L23.055 31.8757C22.3138 31.1345 21.6957 30.5165 21.271 29.9598C20.8227 29.3723 20.5083 28.7515 20.5083 28C20.5083 27.2486 20.8227 26.6278 21.271 26.0403C21.6957 25.4836 22.3138 24.8656 23.055 24.1244L23.2981 23.8813Z" fill="#CE7D63"/>
</svg>
