<svg width="56" height="56" viewBox="0 0 56 56" fill="none" xmlns="http://www.w3.org/2000/svg">
<rect x="0.5" y="0.5" width="55" height="55" rx="9.5" fill="#1F1F1F"/>
<rect x="0.5" y="0.5" width="55" height="55" rx="9.5" stroke="#333333"/>
<path d="M16.3335 21.5834C16.3335 18.6839 18.684 16.3334 21.5835 16.3334C24.483 16.3334 26.8335 18.6839 26.8335 21.5834V25.0834C26.8335 25.4902 26.8335 25.6937 26.7888 25.8606C26.6674 26.3135 26.3136 26.6673 25.8607 26.7887C25.6938 26.8334 25.4904 26.8334 25.0835 26.8334H21.5835C18.684 26.8334 16.3335 24.4829 16.3335 21.5834Z" fill="#CE7D63"/>
<path d="M29.1668 30.9167C29.1668 30.5098 29.1668 30.3064 29.2116 30.1395C29.3329 29.6866 29.6867 29.3328 30.1396 29.2114C30.3065 29.1667 30.51 29.1667 30.9168 29.1667H34.4168C37.3163 29.1667 39.6668 31.5172 39.6668 34.4167C39.6668 37.3162 37.3163 39.6667 34.4168 39.6667C31.5173 39.6667 29.1668 37.3162 29.1668 34.4167V30.9167Z" fill="#CE7D63"/>
<path d="M16.3335 34.4167C16.3335 31.5172 18.684 29.1667 21.5835 29.1667H24.7335C25.4686 29.1667 25.8361 29.1667 26.1169 29.3098C26.3638 29.4356 26.5646 29.6364 26.6904 29.8833C26.8335 30.1641 26.8335 30.5316 26.8335 31.2667V34.4167C26.8335 37.3162 24.483 39.6667 21.5835 39.6667C18.684 39.6667 16.3335 37.3162 16.3335 34.4167Z" fill="#CE7D63"/>
<path d="M29.1668 21.5834C29.1668 18.6839 31.5173 16.3334 34.4168 16.3334C37.3163 16.3334 39.6668 18.6839 39.6668 21.5834C39.6668 24.4829 37.3163 26.8334 34.4168 26.8334H30.6668C30.4927 26.8334 30.4056 26.8334 30.3324 26.8251C29.7239 26.7566 29.2436 26.2763 29.1751 25.6678C29.1668 25.5946 29.1668 25.5075 29.1668 25.3334V21.5834Z" fill="#CE7D63"/>
</svg>
